<?xml version="1.0" encoding="utf-8"?>
<svg xmlns="http://www.w3.org/2000/svg"
	xmlns:xlink="http://www.w3.org/1999/xlink"
	width="36px" height="21px" viewBox="0 0 36 21">
<path fillRule="evenodd" d="M 35.49 20.88C 35.01 21.13 34.39 20.98 34.11 20.53 34.11 20.53 18 2.32 18 2.32 18 2.32 1.89 20.53 1.89 20.53 1.61 20.98 0.99 21.13 0.51 20.88 0.02 20.62-0.14 20.05 0.14 19.6 0.14 19.6 17.06 0.47 17.06 0.47 17.24 0.18 17.57 0.03 17.91 0.02 17.94 0.01 17.97 0.01 18 0.01 18.03 0.01 18.06 0.01 18.09 0.02 18.43 0.03 18.76 0.18 18.94 0.47 18.94 0.47 35.86 19.6 35.86 19.6 36.14 20.05 35.98 20.62 35.49 20.88Z" fill="rgb(229,229,229)"/></svg>