<?xml version="1.0" encoding="utf-8"?>
<svg xmlns="http://www.w3.org/2000/svg"
	xmlns:xlink="http://www.w3.org/1999/xlink"
	width="32px" height="32px" viewBox="0 0 32 32">
<filter filterUnits="objectBoundingBox" x="0.00" y="0.00" width="100.00" height="100.00" id="filter0">
<feFlood flood-color="rgb(235,235,235)" result="coFloodOut1"/>
<feComposite in="coFloodOut1" in2="SourceAlpha" operator="in" result="coOverlay1"/>
<feBlend in="coOverlay1" in2="SourceGraphic" mode="normal" result="colorOverlay1"/>
</filter>
<path fillRule="evenodd" d="M 16 32C 7.16 32 0 24.84 0 16 0 7.16 7.16-0 16-0 24.84-0 32 7.16 32 16 32 24.84 24.84 32 16 32ZM 14.05 15.41C 15.12 14.92 15.72 14.12 15.72 12.97 15.72 10.79 14.14 10 11.79 10 11.79 10 6 10 6 10 6 10 6 21.77 6 21.77 6 21.77 11.96 21.77 11.96 21.77 14.19 21.77 16.31 20.75 16.31 18.38 16.31 16.92 15.55 15.82 14.05 15.41ZM 24.16 10.79C 24.16 10.79 19.22 10.79 19.22 10.79 19.22 10.79 19.22 12.36 19.22 12.36 19.22 12.36 24.16 12.36 24.16 12.36 24.16 12.36 24.16 10.79 24.16 10.79ZM 21.5 13.07C 18.8 13.07 16.93 15 16.93 17.54 16.93 20.17 18.69 22 21.5 22 23.52 22 25.09 20.95 25.78 18.95 25.78 18.95 23.62 18.95 23.62 18.95 23.47 19.48 22.57 20.25 21.59 20.25 20.23 20.25 19.47 19.31 19.4 17.83 19.4 17.83 25.83 17.83 25.83 17.83 26 15.23 24.53 13.07 21.5 13.07ZM 21.43 14.82C 22.62 14.82 23.16 15.13 23.38 16.31 23.38 16.31 19.4 16.31 19.4 16.31 19.43 15.65 19.88 14.82 21.43 14.82ZM 11.6 19.87C 11.6 19.87 8.47 19.87 8.47 19.87 8.47 19.87 8.47 16.66 8.47 16.66 8.47 16.66 11.65 16.66 11.65 16.66 12.81 16.66 13.52 17.13 13.52 18.33 13.52 19.54 12.67 19.87 11.6 19.87ZM 11.45 14.71C 11.45 14.71 8.47 14.71 8.47 14.71 8.47 14.71 8.47 11.97 8.47 11.97 8.47 11.97 11.24 11.97 11.24 11.97 12.21 11.97 13.1 12.2 13.1 13.32 13.1 14.3 12.4 14.71 11.45 14.71Z" fill="rgb(1,135,245)" filter="url(#filter0)"/></svg>