<?xml version="1.0" encoding="utf-8"?>
<svg xmlns="http://www.w3.org/2000/svg"
	xmlns:xlink="http://www.w3.org/1999/xlink"
	width="32px" height="32px" viewBox="0 0 32 32">
<filter filterUnits="objectBoundingBox" x="0.00" y="0.00" width="100.00" height="100.00" id="filter0">
<feFlood flood-color="rgb(235,235,235)" result="coFloodOut1"/>
<feComposite in="coFloodOut1" in2="SourceAlpha" operator="in" result="coOverlay1"/>
<feBlend in="coOverlay1" in2="SourceGraphic" mode="normal" result="colorOverlay1"/>
</filter>
<path fillRule="evenodd" d="M 16 32.01C 15.43 32.01 14.86 31.98 14.31 31.92 16.88 30.66 18.25 28.48 18.25 26.3 18.25 23.85 16.88 22.65 15.37 21.34 15.37 21.34 14.14 20.34 14.14 20.34 13.77 20.03 13.25 19.6 13.25 18.82 13.25 18.04 13.77 17.54 14.21 17.08 15.65 15.91 17.08 14.67 17.08 12.05 17.08 9.36 15.44 7.94 14.65 7.27 14.65 7.27 16.78 7.27 16.78 7.27 16.78 7.27 18.96 5.99 18.96 5.99 18.96 5.99 11.92 5.99 11.92 5.99 10.07 5.99 7.75 6.27 5.79 7.94 4.32 9.25 3.61 11.06 3.61 12.69 3.61 15.45 5.66 18.25 9.28 18.25 9.63 18.25 10 18.22 10.38 18.18 10.21 18.61 10.04 18.96 10.04 19.57 10.04 20.66 10.58 21.34 11.06 21.98 9.52 22.08 6.65 22.26 4.53 23.61 3.8 24.05 3.26 24.58 2.86 25.12 1.06 22.53 0 19.39 0 16 0 7.17 7.16-0 16-0 24.84-0 32 7.17 32 16 32 24.84 24.84 32.01 16 32.01ZM 26.91 9C 26.91 9 23.91 9 23.91 9 23.91 9 23.91 6 23.91 6 23.91 6 21.91 6 21.91 6 21.91 6 21.91 9 21.91 9 21.91 9 18.91 9 18.91 9 18.91 9 18.91 11 18.91 11 18.91 11 21.91 11 21.91 11 21.91 11 21.91 14 21.91 14 21.91 14 23.91 14 23.91 14 23.91 14 23.91 11 23.91 11 23.91 11 26.91 11 26.91 11 26.91 11 26.91 9 26.91 9ZM 6.62 10.95C 6.62 10.03 6.79 9.07 7.37 8.33 7.92 7.62 8.87 7.16 9.76 7.16 12.6 7.16 14.07 11.13 14.07 13.68 14.07 14.32 14 15.45 13.22 16.27 12.67 16.84 11.75 17.26 10.89 17.26 7.95 17.26 6.62 13.33 6.62 10.95ZM 7.85 23.54C 9.28 23.04 11.13 22.97 11.44 22.97 11.78 22.97 11.95 22.97 12.23 23 14.83 24.92 15.95 25.87 15.95 27.68 15.95 29.66 14.53 31.16 11.86 31.45 9.23 30.75 6.86 29.39 4.95 27.56 4.94 27.44 4.9 27.32 4.9 27.19 4.9 24.67 7.09 23.82 7.85 23.54Z" fill="rgb(217,73,53)" filter="url(#filter0)"/></svg>