<?xml version="1.0" encoding="utf-8"?>
<svg xmlns="http://www.w3.org/2000/svg"
	xmlns:xlink="http://www.w3.org/1999/xlink"
	width="32px" height="32px" viewBox="0 0 32 32">
<filter filterUnits="objectBoundingBox" x="0.00" y="0.00" width="100.00" height="100.00" id="filter0">
<feFlood flood-color="rgb(235,235,235)" result="coFloodOut1"/>
<feComposite in="coFloodOut1" in2="SourceAlpha" operator="in" result="coOverlay1"/>
<feBlend in="coOverlay1" in2="SourceGraphic" mode="normal" result="colorOverlay1"/>
</filter>
<path fillRule="evenodd" d="M 16 32C 7.16 32 0 24.84 0 16 0 7.16 7.16-0 16-0 24.84-0 32 7.16 32 16 32 24.84 24.84 32 16 32ZM 9.79 7.47C 9.47 7.16 9.08 7 8.63 7 8.19 7 7.8 7.15 7.48 7.46 7.17 7.77 7.01 8.14 7.01 8.57 7.01 9.02 7.17 9.4 7.49 9.72 7.81 10.03 8.2 10.19 8.65 10.19 9.1 10.19 9.48 10.04 9.79 9.73 10.11 9.42 10.27 9.04 10.27 8.6 10.27 8.16 10.11 7.78 9.79 7.47ZM 10.27 10.99C 10.27 10.99 7 10.99 7 10.99 7 10.99 7 23 7 23 7 23 10.27 23 10.27 23 10.27 23 10.27 10.99 10.27 10.99ZM 25 15.44C 25 14.02 24.51 12.94 23.65 12.22 22.62 11.36 21.61 10.94 20.14 10.94 19.43 10.94 18.96 11.05 18.28 11.28 17.59 11.52 16.85 12 16 12.59 16 12.59 16 10.99 16 10.99 16 10.99 12.73 10.99 12.73 10.99 12.73 10.99 12.73 23 12.73 23 12.73 23 15.99 23 15.99 23 15.99 23 15.99 18.64 15.99 18.64 15.99 17.36 16.04 16.52 16.15 16.14 16.36 15.4 16.73 14.82 17.27 14.4 17.81 13.98 18.46 13.77 19.21 13.77 19.79 13.77 20.27 13.9 20.67 14.15 21.06 14.4 21.34 14.77 21.5 15.26 21.66 15.74 21.74 16.72 21.74 18.19 21.74 18.19 21.74 23 21.74 23 21.74 23 25 23 25 23 25 23 25 15.44 25 15.44Z" fill="rgb(0,89,135)" filter="url(#filter0)"/></svg>