<?xml version="1.0" encoding="utf-8"?>
<svg xmlns="http://www.w3.org/2000/svg"
	xmlns:xlink="http://www.w3.org/1999/xlink"
	width="32px" height="32px" viewBox="0 0 32 32">
<filter filterUnits="objectBoundingBox" x="0.00" y="0.00" width="100.00" height="100.00" id="filter0">
<feFlood flood-color="rgb(235,235,235)" result="coFloodOut1"/>
<feComposite in="coFloodOut1" in2="SourceAlpha" operator="in" result="coOverlay1"/>
<feBlend in="coOverlay1" in2="SourceGraphic" mode="normal" result="colorOverlay1"/>
</filter>
<path fillRule="evenodd" d="M 16 32C 7.16 32 0 24.84 0 16 0 7.16 7.16-0 16-0 24.84-0 32 7.16 32 16 32 24.84 24.84 32 16 32ZM 25.4 8.61C 24.69 9.07 23.9 9.41 23.05 9.59 22.38 8.8 21.42 8.31 20.36 8.31 18.32 8.31 16.67 10.12 16.67 12.35 16.67 12.67 16.7 12.97 16.76 13.27 13.69 13.1 10.97 11.49 9.15 9.05 8.83 9.65 8.65 10.34 8.65 11.08 8.65 12.48 9.3 13.72 10.29 14.44 9.69 14.42 9.12 14.24 8.62 13.94 8.62 13.95 8.62 13.97 8.62 13.99 8.62 15.95 9.89 17.58 11.58 17.95 11.27 18.04 10.94 18.09 10.61 18.09 10.37 18.09 10.14 18.07 9.91 18.02 10.38 19.62 11.75 20.79 13.36 20.82 12.1 21.91 10.51 22.55 8.78 22.55 8.48 22.55 8.18 22.53 7.9 22.5 9.53 23.64 11.47 24.31 13.56 24.31 20.35 24.31 24.06 18.16 24.06 12.82 24.06 12.64 24.06 12.47 24.05 12.3 24.78 11.73 25.4 11.02 25.9 10.2 25.23 10.53 24.52 10.74 23.78 10.84 24.54 10.34 25.12 9.55 25.4 8.61Z" fill="rgb(77,157,219)" filter="url(#filter0)"/></svg>